<?xml version="1.0" standalone="no"?>
<!DOCTYPE svg PUBLIC "-//W3C//DTD SVG 20010904//EN"
 "http://www.w3.org/TR/2001/REC-SVG-20010904/DTD/svg10.dtd">
<svg version="1.0" xmlns="http://www.w3.org/2000/svg"
 width="700.000000pt" height="700.000000pt" viewBox="0 0 700.000000 700.000000"
 preserveAspectRatio="xMidYMid meet">
<metadata>
Created by potrace 1.11, written by Peter Selinger 2001-2013
</metadata>
<g transform="translate(0.000000,700.000000) scale(0.100000,-0.100000)"
fill="#000000" stroke="none">
<path d="M2518 6994 c-3 -2 -2 -24 2 -49 7 -48 5 -450 -3 -500 -3 -16 -8 -61
-11 -100 -4 -38 -9 -77 -11 -85 -2 -8 -6 -28 -9 -45 -14 -83 -19 -109 -46
-222 -66 -275 -185 -572 -363 -898 -64 -119 -225 -381 -395 -645 -403 -624
-568 -942 -686 -1320 -20 -63 -38 -124 -40 -135 -3 -11 -14 -63 -25 -115 -11
-53 -23 -118 -26 -145 -3 -28 -8 -61 -10 -75 -24 -132 -23 -460 0 -645 9 -72
36 -219 46 -251 5 -17 12 -42 14 -55 19 -100 104 -319 179 -463 216 -417 556
-742 997 -954 205 -99 434 -176 644 -218 11 -2 31 -6 45 -9 57 -11 138 -25
185 -30 28 -4 61 -8 74 -10 168 -28 660 -27 851 1 200 29 289 49 467 105 492
154 889 432 1195 836 169 224 321 519 393 758 10 33 24 80 32 105 8 25 16 52
18 61 2 9 12 59 24 110 25 116 28 132 36 205 4 33 9 67 11 77 22 124 22 588
-1 702 -2 11 -7 47 -10 80 -22 213 -117 604 -190 780 -7 17 -34 82 -60 145
-48 118 -176 373 -201 401 -8 8 -14 19 -14 23 0 15 -168 262 -246 362 -244
314 -533 581 -888 822 -102 69 -109 72 -96 38 5 -15 21 -71 34 -124 67 -262
64 -531 -7 -807 -33 -129 -129 -336 -210 -455 -52 -76 -236 -270 -256 -270 -7
0 -11 45 -12 138 -1 170 -2 185 -25 416 -24 244 -102 605 -187 866 -229 699
-629 1242 -1149 1558 -36 22 -68 39 -70 36z m1439 -3861 c124 -142 220 -284
303 -450 52 -103 122 -279 135 -338 2 -11 11 -47 19 -80 14 -60 18 -81 35
-205 9 -66 7 -321 -2 -375 -3 -16 -8 -50 -12 -75 -15 -101 -61 -248 -119 -382
-49 -113 -168 -283 -257 -368 -79 -75 -97 -89 -164 -132 -166 -106 -311 -147
-501 -142 -334 9 -600 179 -711 456 -83 205 -76 432 19 623 58 116 199 278
377 432 95 81 340 332 405 413 143 179 287 419 367 610 19 44 37 80 40 80 4 0
34 -30 66 -67z"/>
</g>
</svg>
